<svg width="38" height="25" viewBox="0 0 38 25" fill="none" xmlns="http://www.w3.org/2000/svg">
<path d="M29.1011 6.85441C29.1011 4.70401 30.7907 2.97601 33.0179 2.97601C35.3219 2.97601 37.0499 4.70401 37.0499 6.85441C37.0499 9.04321 35.3219 10.7328 33.0179 10.7328C30.7523 10.7328 29.1011 9.04321 29.1011 6.85441ZM29.1011 17.8368C29.1011 15.6864 30.7907 13.9584 33.0179 13.9584C35.3219 13.9584 37.0499 15.6864 37.0499 17.8368C37.0499 19.9872 35.3219 21.7152 33.0179 21.7152C30.7523 21.7152 29.1011 19.9872 29.1011 17.8368Z" fill="#231F20"/>
<path d="M0.914551 0.133423V24.0182H24.7994V0.133423H0.914551ZM18.0026 4.08862L4.90815 17.183V4.08862H18.0026ZM7.71135 20.0246L20.8057 6.93022V20.0246H7.71135Z" fill="#231F20"/>
</svg>
